# xmcd
#
# Track frame offsets: 
#        150
#        23977
#        47489
#        64923
#        81015
#        104000
#        124464
#        149140
#        164891
#        185916
#        221496
#        239306
#        261572
#        281683
#
# Disc length: 4151 seconds
#
# Revision: 0
# Processed by: cddbd v1.5.2PL0 Copyright (c) Steve Scherf et al.
# Submitted via: ExactAudioCopy v1.0b4
#
DISCID=eb10350e
DTITLE=The Boom Band - The Boom Band Deluxe Edition
DYEAR=2015
DGENRE=Blues
TTITLE0=We Can Work Together
TTITLE1=Diamonds in the Rust
TTITLE2=Under the Skin
TTITLE3=Sweet Alberta
TTITLE4=Moonshine
TTITLE5=Waste My Time
TTITLE6=Monty's Theme
TTITLE7=Favour Bank Shuffle
TTITLE8=When You Come Home
TTITLE9=Red Eye of the Devil
TTITLE10=Nobody's Fault But Mine
TTITLE11=Can't Find My Way Home
TTITLE12=You Can Bring Me Flowers
TTITLE13=We Can Work Together
EXTD=
EXTT0=
EXTT1=
EXTT2=
EXTT3=
EXTT4=
EXTT5=
EXTT6=
EXTT7=
EXTT8=
EXTT9=
EXTT10=
EXTT11=
EXTT12=
EXTT13=
PLAYORDER=
